<svg width="89" height="48" viewBox="0 0 89 48" fill="none" xmlns="http://www.w3.org/2000/svg">
<rect width="89" height="48" fill="#7D73FC"/>
<path d="M17.3406 25.8027C17.3406 25.4277 17.2078 25.1387 16.9422 24.9355C16.6805 24.7324 16.2059 24.5273 15.5184 24.3203C14.8309 24.1133 14.284 23.8828 13.8777 23.6289C13.1004 23.1406 12.7117 22.5039 12.7117 21.7188C12.7117 21.0312 12.991 20.4648 13.5496 20.0195C14.1121 19.5742 14.8406 19.3516 15.7352 19.3516C16.3289 19.3516 16.8582 19.4609 17.323 19.6797C17.7879 19.8984 18.1531 20.2109 18.4188 20.6172C18.6844 21.0195 18.8172 21.4668 18.8172 21.959H17.3406C17.3406 21.5137 17.2 21.166 16.9188 20.916C16.6414 20.6621 16.243 20.5352 15.7234 20.5352C15.2391 20.5352 14.8621 20.6387 14.5926 20.8457C14.327 21.0527 14.1941 21.3418 14.1941 21.7129C14.1941 22.0254 14.3387 22.2871 14.6277 22.498C14.9168 22.7051 15.3934 22.9082 16.0574 23.1074C16.7215 23.3027 17.2547 23.5273 17.657 23.7812C18.0594 24.0312 18.3543 24.3203 18.5418 24.6484C18.7293 24.9727 18.823 25.3535 18.823 25.791C18.823 26.502 18.5496 27.0684 18.0027 27.4902C17.4598 27.9082 16.7215 28.1172 15.7879 28.1172C15.1707 28.1172 14.6023 28.0039 14.0828 27.7773C13.5672 27.5469 13.1648 27.2305 12.8758 26.8281C12.5906 26.4258 12.448 25.957 12.448 25.4219H13.9305C13.9305 25.9062 14.0906 26.2812 14.4109 26.5469C14.7313 26.8125 15.1902 26.9453 15.7879 26.9453C16.3035 26.9453 16.6902 26.8418 16.948 26.6348C17.2098 26.4238 17.3406 26.1465 17.3406 25.8027ZM23.1381 28.1172C22.2358 28.1172 21.5034 27.834 20.9409 27.2676C20.3823 26.6973 20.103 25.9395 20.103 24.9941V24.8184C20.103 24.1855 20.2241 23.6211 20.4663 23.125C20.7123 22.625 21.0561 22.2363 21.4975 21.959C21.9389 21.6816 22.4311 21.543 22.9741 21.543C23.8373 21.543 24.5034 21.8184 24.9721 22.3691C25.4448 22.9199 25.6811 23.6992 25.6811 24.707V25.2812H21.5385C21.5815 25.8047 21.7553 26.2188 22.06 26.5234C22.3686 26.8281 22.7553 26.9805 23.2202 26.9805C23.8725 26.9805 24.4038 26.7168 24.8139 26.1895L25.5815 26.9219C25.3276 27.3008 24.9877 27.5957 24.562 27.8066C24.1401 28.0137 23.6655 28.1172 23.1381 28.1172ZM22.9682 22.6855C22.5776 22.6855 22.2612 22.8223 22.019 23.0957C21.7807 23.3691 21.6284 23.75 21.562 24.2383H24.2748V24.1328C24.2436 23.6562 24.1166 23.2969 23.894 23.0547C23.6713 22.8086 23.3627 22.6855 22.9682 22.6855ZM29.9434 28.1172C29.0411 28.1172 28.3087 27.834 27.7462 27.2676C27.1876 26.6973 26.9083 25.9395 26.9083 24.9941V24.8184C26.9083 24.1855 27.0294 23.6211 27.2716 23.125C27.5177 22.625 27.8614 22.2363 28.3028 21.959C28.7442 21.6816 29.2364 21.543 29.7794 21.543C30.6427 21.543 31.3087 21.8184 31.7774 22.3691C32.2501 22.9199 32.4864 23.6992 32.4864 24.707V25.2812H28.3438C28.3868 25.8047 28.5606 26.2188 28.8653 26.5234C29.1739 26.8281 29.5606 26.9805 30.0255 26.9805C30.6778 26.9805 31.2091 26.7168 31.6192 26.1895L32.3868 26.9219C32.1329 27.3008 31.793 27.5957 31.3673 27.8066C30.9454 28.0137 30.4708 28.1172 29.9434 28.1172ZM29.7735 22.6855C29.3829 22.6855 29.0665 22.8223 28.8243 23.0957C28.586 23.3691 28.4337 23.75 28.3673 24.2383H31.0802V24.1328C31.0489 23.6562 30.922 23.2969 30.6993 23.0547C30.4766 22.8086 30.168 22.6855 29.7735 22.6855ZM38.9252 24.8301V28H37.4427V19.4688H40.7064C41.6595 19.4688 42.4154 19.7168 42.974 20.2129C43.5365 20.709 43.8177 21.3652 43.8177 22.1816C43.8177 23.0176 43.5423 23.668 42.9916 24.1328C42.4447 24.5977 41.6771 24.8301 40.6888 24.8301H38.9252ZM38.9252 23.6406H40.7064C41.2338 23.6406 41.6361 23.5176 41.9134 23.2715C42.1908 23.0215 42.3295 22.6621 42.3295 22.1934C42.3295 21.7324 42.1888 21.3652 41.9076 21.0918C41.6263 20.8145 41.2396 20.6719 40.7474 20.6641H38.9252V23.6406ZM48.6602 22.9609C48.4727 22.9297 48.2793 22.9141 48.0801 22.9141C47.4277 22.9141 46.9883 23.1641 46.7617 23.6641V28H45.3379V21.6602H46.6973L46.7324 22.3691C47.0762 21.8184 47.5527 21.543 48.1621 21.543C48.3652 21.543 48.5332 21.5703 48.666 21.625L48.6602 22.9609ZM49.442 24.7715C49.442 24.1504 49.5651 23.5918 49.8112 23.0957C50.0573 22.5957 50.403 22.2129 50.8483 21.9473C51.2936 21.6777 51.8053 21.543 52.3834 21.543C53.2389 21.543 53.9323 21.8184 54.4635 22.3691C54.9987 22.9199 55.2877 23.6504 55.3307 24.5605L55.3366 24.8945C55.3366 25.5195 55.2155 26.0781 54.9733 26.5703C54.735 27.0625 54.3913 27.4434 53.942 27.7129C53.4967 27.9824 52.9811 28.1172 52.3952 28.1172C51.5006 28.1172 50.7838 27.8203 50.2448 27.2266C49.7096 26.6289 49.442 25.834 49.442 24.8418V24.7715ZM50.8659 24.8945C50.8659 25.5469 51.0006 26.0586 51.2702 26.4297C51.5397 26.7969 51.9147 26.9805 52.3952 26.9805C52.8756 26.9805 53.2487 26.793 53.5143 26.418C53.7838 26.043 53.9186 25.4941 53.9186 24.7715C53.9186 24.1309 53.7799 23.623 53.5026 23.248C53.2291 22.873 52.8561 22.6855 52.3834 22.6855C51.9186 22.6855 51.5495 22.8711 51.276 23.2422C51.0026 23.6094 50.8659 24.1602 50.8659 24.8945ZM58.386 21.6602V28.5625C58.386 29.2109 58.2239 29.7051 57.8997 30.0449C57.5794 30.3887 57.1087 30.5605 56.4876 30.5605C56.2259 30.5605 55.9739 30.5273 55.7317 30.4609V29.3359C55.8802 29.3711 56.0481 29.3887 56.2356 29.3887C56.7083 29.3887 56.9505 29.1309 56.9622 28.6152V21.6602H58.386ZM56.8391 20.0137C56.8391 19.7949 56.9075 19.6133 57.0442 19.4688C57.1848 19.3242 57.3841 19.252 57.6419 19.252C57.8997 19.252 58.0989 19.3242 58.2395 19.4688C58.3802 19.6133 58.4505 19.7949 58.4505 20.0137C58.4505 20.2285 58.3802 20.4082 58.2395 20.5527C58.0989 20.6934 57.8997 20.7637 57.6419 20.7637C57.3841 20.7637 57.1848 20.6934 57.0442 20.5527C56.9075 20.4082 56.8391 20.2285 56.8391 20.0137ZM63.0644 28.1172C62.162 28.1172 61.4296 27.834 60.8671 27.2676C60.3085 26.6973 60.0292 25.9395 60.0292 24.9941V24.8184C60.0292 24.1855 60.1503 23.6211 60.3925 23.125C60.6386 22.625 60.9823 22.2363 61.4238 21.959C61.8652 21.6816 62.3573 21.543 62.9003 21.543C63.7636 21.543 64.4296 21.8184 64.8984 22.3691C65.371 22.9199 65.6073 23.6992 65.6073 24.707V25.2812H61.4648C61.5077 25.8047 61.6816 26.2188 61.9863 26.5234C62.2948 26.8281 62.6816 26.9805 63.1464 26.9805C63.7988 26.9805 64.33 26.7168 64.7402 26.1895L65.5077 26.9219C65.2538 27.3008 64.914 27.5957 64.4882 27.8066C64.0663 28.0137 63.5917 28.1172 63.0644 28.1172ZM62.8945 22.6855C62.5038 22.6855 62.1874 22.8223 61.9452 23.0957C61.707 23.3691 61.5546 23.75 61.4882 24.2383H64.2011V24.1328C64.1698 23.6562 64.0429 23.2969 63.8202 23.0547C63.5976 22.8086 63.289 22.6855 62.8945 22.6855ZM69.6822 26.9805C70.0377 26.9805 70.3326 26.877 70.567 26.6699C70.8013 26.4629 70.9263 26.207 70.942 25.9023H72.2838C72.2681 26.2969 72.1451 26.666 71.9146 27.0098C71.6841 27.3496 71.3716 27.6191 70.9771 27.8184C70.5826 28.0176 70.1568 28.1172 69.6998 28.1172C68.813 28.1172 68.1099 27.8301 67.5904 27.2559C67.0709 26.6816 66.8111 25.8887 66.8111 24.877V24.7305C66.8111 23.7656 67.0689 22.9941 67.5845 22.416C68.1002 21.834 68.8033 21.543 69.6939 21.543C70.4478 21.543 71.0611 21.7637 71.5338 22.2051C72.0103 22.6426 72.2603 23.2188 72.2838 23.9336H70.942C70.9263 23.5703 70.8013 23.2715 70.567 23.0371C70.3365 22.8027 70.0416 22.6855 69.6822 22.6855C69.2213 22.6855 68.8658 22.8535 68.6158 23.1895C68.3658 23.5215 68.2388 24.0273 68.2349 24.707V24.9355C68.2349 25.623 68.358 26.1367 68.6041 26.4766C68.8541 26.8125 69.2134 26.9805 69.6822 26.9805ZM75.5031 20.1191V21.6602H76.6223V22.7148H75.5031V26.2539C75.5031 26.4961 75.55 26.6719 75.6437 26.7812C75.7414 26.8867 75.9133 26.9395 76.1594 26.9395C76.3234 26.9395 76.4895 26.9199 76.6574 26.8809V27.9824C76.3332 28.0723 76.0207 28.1172 75.7199 28.1172C74.6262 28.1172 74.0793 27.5137 74.0793 26.3066V22.7148H73.0363V21.6602H74.0793V20.1191H75.5031Z" fill="#EDECFF"/>
</svg>
